<?xml version="1.0" encoding="UTF-8" standalone="no"?>
<!-- Created with Inkscape (http://www.inkscape.org/) -->

<svg
   xmlns:dc="http://purl.org/dc/elements/1.1/"
   xmlns:cc="http://creativecommons.org/ns#"
   xmlns:rdf="http://www.w3.org/1999/02/22-rdf-syntax-ns#"
   xmlns:svg="http://www.w3.org/2000/svg"
   xmlns="http://www.w3.org/2000/svg"
   xmlns:sodipodi="http://sodipodi.sourceforge.net/DTD/sodipodi-0.dtd"
   xmlns:inkscape="http://www.inkscape.org/namespaces/inkscape"
   width="640"
   height="960"
   id="svg4921"
   version="1.1"
   inkscape:version="0.48.1 "
   sodipodi:docname="splash.svg"
   inkscape:export-filename="C:\Projects\mobile-budget\src\main\resources\iphone\Default@2x.png"
   inkscape:export-xdpi="90"
   inkscape:export-ydpi="90">
  <defs
     id="defs4923" />
  <sodipodi:namedview
     id="base"
     pagecolor="#ffffff"
     bordercolor="#666666"
     borderopacity="1.0"
     inkscape:pageopacity="0.0"
     inkscape:pageshadow="2"
     inkscape:zoom="0.7"
     inkscape:cx="274.69508"
     inkscape:cy="449.56842"
     inkscape:document-units="px"
     inkscape:current-layer="g4981"
     showgrid="false"
     inkscape:window-width="1280"
     inkscape:window-height="962"
     inkscape:window-x="-8"
     inkscape:window-y="-8"
     inkscape:window-maximized="1" />
  <metadata
     id="metadata4926">
    <rdf:RDF>
      <cc:Work
         rdf:about="">
        <dc:format>image/svg+xml</dc:format>
        <dc:type
           rdf:resource="http://purl.org/dc/dcmitype/StillImage" />
        <dc:title></dc:title>
      </cc:Work>
    </rdf:RDF>
  </metadata>
  <g
     inkscape:label="Layer 1"
     inkscape:groupmode="layer"
     id="layer1"
     transform="translate(0,-92.362183)">
    <g
       id="g4981"
       transform="translate(96.974646,-22.223356)">
      <rect
         style="opacity:1;fill:#ffffff;fill-opacity:1;fill-rule:nonzero;stroke:none"
         id="rect3004"
         width="1062.8572"
         height="1108.5714"
         x="-311.26038"
         y="57.442657" />
      <path
         style="fill:#1401cc;fill-opacity:1"
         d="m 271.38547,1040.9693 c 12.68806,-1.085 13.485,-1.1707 21.87923,-2.4844 10.61141,-4.1442 47.60928,-2.9801 39.79015,-14.8166 -0.87649,-1.3397 -2.23722,-2.3603 -3.87792,-3.1503 -7.85552,-3.7825 -22.12901,-2.2777 -20.39954,-5.1909 6.33725,-3.0708 9.57033,-4.8127 17.93231,-2.4954 15.16861,4.94 22.34044,13.6537 8.67152,21.5744 -18.0688,7.2018 -41.07799,8.3735 -61.99002,8.714 -4.93834,3.0139 -72.64174,4.7519 -75.9214,2.6429 -3.27966,-2.109 27.08696,-0.6103 28.4874,-0.7124 1.40043,-0.1023 32.74023,-2.9964 45.42827,-4.0813 z m -154.6639,2.4331 c -11.26836,-4.5475 -35.502163,-4.2198 -42.303663,-15.6671 -4.921236,-8.4807 12.800294,-13.9323 36.201113,-16.5041 0.79372,5.7487 -24.057987,5.7223 -25.015326,11.7429 -1.682911,10.5838 17.308246,12.192 26.532496,14.8212 27.96748,5.0631 87.35829,6.5489 89.86305,8.0359 2.50476,1.487 10.35221,1.1687 -52.41189,-0.3912 -13.93053,-0.3462 -30.8479,-1.6355 -32.86578,-2.0376 z"
         id="path3912"
         inkscape:connector-curvature="0"
         sodipodi:nodetypes="zccscccczzzcccsczsc" />
      <path
         style="fill:#7df882"
         d="m 197.42644,1052.001 c 0.54981,-0.5498 1.97691,-0.6086 3.17134,-0.1306 1.31994,0.5282 0.92788,0.9203 -0.99966,0.9997 -1.74423,0.072 -2.72149,-0.3192 -2.17168,-0.869 z m -26.09459,-13.476 c -30.36129,-2.6657 -49.65795,-14.043 -59.08656,-34.8374 -4.22495,-9.31789 -4.62907,-11.62293 -3.63101,-20.71022 0.61768,-5.62396 2.65365,-13.57597 4.52437,-17.67113 3.90333,-8.54471 20.61465,-25.74959 29.69585,-30.57292 3.38804,-1.79952 6.1601,-4.10282 6.1601,-5.11845 0,-1.01565 -1.48915,-6.17491 -3.30922,-11.46505 -1.82008,-5.29014 -3.30923,-10.21491 -3.30923,-10.94395 0,-1.25679 20.68137,-8.08408 24.4885,-8.08408 0.98694,0 3.43997,5.10916 5.45115,11.35369 l 3.6567,11.3537 14.36845,0.93088 c 31.20928,2.02197 51.97855,13.53045 61.53042,34.0947 3.31965,7.14687 3.83599,6.74751 -16.01276,12.38512 -22.85207,6.49064 -23.37355,6.51008 -25.67343,0.95768 -4.51264,-10.89445 -23.26304,-18.34871 -36.91049,-14.67383 -8.47495,2.28205 -19.94902,10.3602 -22.42067,15.78491 -2.41276,5.29541 -2.38281,16.40174 0.0566,20.95967 6.37416,11.91018 12.31968,12.77798 62.80498,9.16618 30.98322,-2.21653 42.92028,-0.5794 56.00569,7.6811 8.1428,5.1403 18.8539,15.234 21.33116,20.1017 1.68665,3.3141 1.22144,3.6297 -8.03745,5.4512 -20.41708,4.0169 -84.61033,6.2335 -111.68306,3.8565 z m 36.40145,-56.67264 c 0.56243,-0.91004 1.72324,-1.65461 2.57957,-1.65461 0.85632,0 1.55695,0.74457 1.55695,1.65461 0,0.91003 -1.16081,1.65461 -2.57957,1.65461 -1.41876,0 -2.11939,-0.74458 -1.55695,-1.65461 z m -5.46858,-4.13653 c -0.0337,-2.73011 0.30951,-4.04728 0.76276,-2.92706 0.45323,1.12022 0.48082,3.35395 0.0614,4.96384 -0.41951,1.60988 -0.79034,0.69333 -0.82406,-2.03678 z m -27.21,-18.46923 c 1.13755,-0.45901 2.99899,-0.45901 4.13653,0 1.13755,0.459 0.20683,0.83457 -2.06826,0.83457 -2.27509,0 -3.20581,-0.37557 -2.06827,-0.83457 z m 73.00549,-49.78348 c -2.05812,-2.62431 -1.9996,-2.68284 0.62471,-0.62472 1.59257,1.24899 2.89557,2.55199 2.89557,2.89557 0,1.36181 -1.35875,0.48532 -3.52028,-2.27085 z m -37.39688,-12.9956 c 0.54981,-0.54981 1.97691,-0.60858 3.17134,-0.13055 1.31994,0.52819 0.92788,0.92026 -0.99966,0.99965 -1.74423,0.0718 -2.72149,-0.31922 -2.17168,-0.86903 z"
         id="path4995"
         inkscape:connector-curvature="0"
         sodipodi:nodetypes="ccccccssssssssscsssssssssssccssssscccccssssssssccccc" />
      <path
         style="fill:#afca5c"
         d="m -12.339186,799.83503 c -1.65219,-1.82565 -2.69832,-3.61416 -2.32471,-3.97447 0.37359,-0.36031 2.01704,1.13341 3.65209,3.31936 3.61101,4.82769 2.8076,5.22421 -1.32738,0.65511 z m 23.45193,-0.68883 c -0.49673,-1.29447 -2.6239602,-2.61514 -4.7272102,-2.93485 -2.10322,-0.31969 -3.61946,-1.54966 -3.3694,-2.73323 0.25007,-1.18358 -0.32051,-1.6729 -1.26794,-1.08735 -0.94743,0.58554 -1.29422,1.75774 -0.77065,2.60491 1.99549,3.22879 -4.65926,1.36447 -7.7909098,-2.1826 -1.80776,-2.04758 -2.81389,-2.79216 -2.23582,-1.65461 0.61975,1.21961 -0.008,2.06826 -1.52856,2.06826 -1.41877,-5e-5 -2.57956,-0.78857 -2.57956,-1.75232 0,-0.96374 -0.69098,-1.32521 -1.5355,-0.80328 -1.64235,1.01504 -4.31939,-5.378 -2.86219,-6.83519 0.47755,-0.47756 1.84855,-0.25389 3.04663,0.49706 1.19811,0.75093 3.48682,1.15005 5.08605,0.88692 1.59924,-0.26313 4.07229,0.68618 5.4956698,2.10956 1.4234,1.4234 3.46552,2.52919 4.53805,2.45735 1.36172,-0.0912 1.32295,-0.38346 -0.12856,-0.96863 -3.15147,-1.27054 -0.71608,-3.86457 3.62825,-3.86457 4.86631,0 6.8473402,2.54669 8.0443702,10.34132 0.98069,6.38587 0.54596,7.9914 -1.04278,3.8512 z m 33.38235,-4.6203 c -1.21839,-10.00393 -1.05141,-10.38729 4.71143,-10.81706 5.39764,-0.40256 15.4029,4.92438 15.4029,8.20067 0,2.65762 -10.80801,0.70333 -14.87967,-2.69053 l -4.1247,-3.43805 3.021,3.5912 c 2.93985,3.49471 2.92842,3.64074 -0.42548,5.4357 -2.65348,1.4201 -3.50609,1.35521 -3.70548,-0.28198 z m 18.87337,-6.16967 c -5.03154,-4.19746 -4.68244,-6.19541 1.23424,-7.06378 3.7621,-0.55216 6.25509,0.42707 10.34132,4.06205 2.96131,2.63428 4.45348,4.32238 3.31594,3.75132 -1.13755,-0.57105 -2.06827,-0.24976 -2.06827,0.71398 0,2.88219 -8.82076,1.87542 -12.82323,-1.46357 z m 16.98483,-2.39981 c -2.17858,-2.17858 -4.37845,-3.54363 -4.88863,-3.03345 -0.51017,0.51017 -0.92758,0.11814 -0.92758,-0.87133 0,-2.64662 9.65393,-4.34884 12.28413,-2.16597 1.67834,1.3929 2.45755,1.22654 3.18952,-0.68096 1.59364,-4.15296 9.9279,-3.06795 14.434586,1.87919 2.20621,2.42184 3.04796,3.84689 1.87056,3.16678 -1.17742,-0.68011 -3.21552,-0.34459 -4.52912,0.74562 -1.3136,1.09019 -3.490866,1.55909 -4.838356,1.04201 -1.3475,-0.51709 -2.92736,-0.16777 -3.51081,0.77626 -0.58345,0.94403 -2.90339,1.25396 -5.15545,0.68873 -2.63409,-0.66112 -3.71528,-0.41384 -3.03107,0.69323 1.89855,3.07192 -0.83685,1.82082 -4.89778,-2.24011 z m 28.492836,-4.60027 c -5.62785,-4.09959 -5.69637,-5.67771 -0.30526,-7.0308 2.93883,-0.7376 5.73177,0.0165 9.19563,2.48305 4.62817,3.29554 5.33077,5.07647 2.02662,5.13706 -0.75836,0.0132 -2.50657,0.62882 -3.8849,1.36648 -1.60793,0.86053 -4.12814,0.15967 -7.03209,-1.95579 z m -144.050566,-0.80046 c -0.59881,-0.59881 -0.22457,-2.12997 0.8316,-3.40258 1.05619,-1.27263 1.23588,-2.18369 0.39931,-2.02457 -3.40223,0.64711 -4.03141,-0.26698 -2.34834,-3.4118 2.71428,-5.07167 4.2777,-3.97259 4.70737,3.30922 0.36196,6.1347 -0.95555,8.16411 -3.58994,5.52973 z m 158.138906,-2.3884 c -5.53682,-3.569 -6.94585,-6.3641 -3.30923,-6.56456 1.13754,-0.0627 4.01931,-0.37391 6.40392,-0.69156 4.91937,-0.65531 15.91092,5.26137 13.67233,7.35971 -3.59239,3.36732 -11.45775,3.31872 -16.76702,-0.10358 z m -109.617996,-0.8947 c 0,-0.88778 1.15793,-3.05946 2.57318,-4.82596 2.42629,-3.02845 2.46073,-2.97565 0.60319,0.92472 -2.41211,5.06481 -3.17637,6.00349 -3.17637,3.90124 z m 126.976096,-3.58094 -4.56551,-3.05394 4.24188,-2.27017 c 3.72263,-1.9923 4.94507,-1.8915 9.98626,0.82335 3.15941,1.70145 5.48143,3.89654 5.16004,4.87796 -1.00033,3.05468 -10.0359,2.82473 -14.82267,-0.3772 z m 20.28431,-1.89319 c 0,-1.0624 -0.64507,-1.53297 -1.43348,-1.0457 -1.4617,0.90337 -7.92893,-5.17227 -6.69156,-6.28637 2.06239,-1.85695 7.99982,-2.56395 8.92742,-1.06303 0.59449,0.9619 1.72307,1.35203 2.50796,0.86693 0.78489,-0.48508 2.47552,0.6149 3.75695,2.44441 1.28144,1.8295 2.82774,2.96503 3.43623,2.52338 0.60848,-0.44165 0.5417,-0.11731 -0.14842,0.72075 -2.10151,2.55204 -10.3551,4.01832 -10.3551,1.83963 z m 8.87353,-8.04677 c -2.60535,-2.18924 -3.85773,-3.51427 -2.78308,-2.94453 1.07467,0.56974 2.42163,0.27916 2.99323,-0.64572 2.23698,-3.61952 14.64716,-0.28586 16.45281,4.4196 0.49724,1.29576 0.16801,1.89172 -0.73627,1.33284 -0.89961,-0.55598 -1.63567,-0.21055 -1.63567,0.76766 0,3.11869 -9.38174,1.19531 -14.29102,-2.92985 z m 17.18299,-1.48958 c -1.59455,-1.77294 -2.33913,-3.84014 -1.65462,-4.59382 0.68452,-0.75367 -0.23578,-0.83472 -2.0451,-0.18009 -3.28312,1.18788 -3.28312,1.18399 0,-1.95717 3.20107,-3.06263 3.34839,-3.06462 5.46967,-0.0738 1.199,1.69053 1.94357,4.63848 1.65461,6.551 -0.51948,3.43818 -0.55802,3.44103 -3.42456,0.25382 z m 32.62294,-5.80829 c 0.23861,-4.29944 -0.20888,-7.41993 -0.99442,-6.93444 -0.78555,0.4855 -1.42826,-0.0333 -1.42826,-1.15291 0,-1.1196 -1.30301,-3.57059 -2.89557,-5.44664 -2.77541,-3.26944 -2.7709,-3.31418 0.10887,-1.07822 2.46484,1.91374 4.01194,1.96845 8.6132,0.30461 4.6815,-1.69285 6.4414,-1.59749 10.64603,0.5768 6.1388,3.1745 6.31456,4.71605 0.82299,7.21817 -5.11634,2.33117 -6.21032,2.4084 -4.9373,0.34861 0.53423,-0.86437 -0.48975,-2.35352 -2.27549,-3.30922 -4.41445,-2.36254 -4.43412,-2.34922 -4.15391,2.81256 0.13584,2.5026 -0.31789,5.29475 -1.00827,6.20479 -0.69041,0.91004 -1.63249,3.14376 -2.09352,4.96383 -0.46104,1.82008 -0.64301,-0.20849 -0.4044,-4.50794 z M 236.096,741.25541 c -3.43872,-2.81269 -4.15922,-4.221 -2.63992,-5.15997 1.44716,-0.8944 1.71893,-0.57698 0.88394,1.03246 -0.66312,1.27815 -0.13766,1.02091 1.16773,-0.57165 3.06118,-3.73472 5.98145,-3.61088 11.10891,0.47113 4.02757,3.20639 4.05294,3.35721 0.96305,5.72631 -2.54125,1.94846 -3.67582,2.02674 -5.69509,0.39296 -2.0057,-1.62278 -2.2674,-1.61704 -1.27906,0.0281 1.72554,2.87217 0.93905,2.53744 -4.50956,-1.91929 z m 12.4506,-7.45685 -3.38064,-2.6198 3.96136,-4.89917 c 2.17874,-2.69455 4.28152,-4.55599 4.67285,-4.13653 0.39132,0.41946 1.21333,3.80299 1.82667,7.51897 1.2495,7.57016 -0.97352,8.86891 -7.08024,4.13653 z m 3.16452,-15.71886 c -0.0718,-1.74422 0.31921,-2.72149 0.86904,-2.17168 0.54981,0.54981 0.60858,1.97692 0.13055,3.17135 -0.52819,1.31993 -0.92026,0.92787 -0.99965,-0.99967 z m 15.27529,-1.48892 c -0.46519,-0.74307 -0.4344,-1.76242 0.0683,-2.26524 0.5028,-0.50281 -0.16722,-1.99561 -1.48894,-3.31733 -3.56597,-3.566 -2.92734,-5.47592 1.83114,-5.47592 2.81147,0 3.83218,0.65044 3.03779,1.93579 -0.82317,1.33192 -0.26476,1.57829 1.7901,0.78977 3.93384,-1.50956 11.36439,3.32719 10.11468,6.58391 -0.52778,1.37536 -0.22267,2.00251 0.69753,1.43379 0.89961,-0.55599 1.63567,-0.19891 1.63567,0.79353 0,2.09214 -16.35403,1.64991 -17.68631,-0.47825 z m 20.01102,-1.30459 c -1.73362,-1.91561 -3.15202,-3.96319 -3.15202,-4.55018 0,-0.58698 -0.4878,-0.90465 -1.084,-0.70591 -0.59621,0.19874 -1.50356,-0.73198 -2.01634,-2.06826 -0.54361,-1.41658 0.0243,-2.42955 1.36234,-2.42955 3.906,0 7.55583,1.92744 6.59468,3.48259 -1.3947,2.25669 1.37207,1.67074 4.97358,-1.05329 3.92921,-2.97192 6.52618,-3.16557 4.84128,-0.36104 -0.97129,1.61672 -0.67715,1.61048 1.34723,-0.0285 2.64147,-2.13863 7.80591,-1.22537 8.17992,1.44653 0.11367,0.81266 0.32482,2.4083 0.46902,3.54585 0.35034,2.76376 -2.31795,4.49394 -6.97829,4.52485 -2.47042,0.0165 -3.40332,-0.64972 -2.63992,-1.88494 0.73734,-1.19304 0.45325,-1.46072 -0.75664,-0.71297 -1.06548,0.6585 -1.50889,1.89041 -0.9853,2.73757 1.94412,3.14567 -7.11978,1.41183 -10.15554,-1.94266 z m 8.43026,-4.79007 c -0.56244,-0.91004 -1.35096,-1.65461 -1.75227,-1.65461 -0.40131,0 -0.72965,0.74457 -0.72965,1.65461 0,0.91004 0.78852,1.65461 1.75227,1.65461 0.96374,0 1.29208,-0.74457 0.72965,-1.65461 z m 17.0298,-1.70676 c -2.37981,-2.55939 -4.76519,-4.21518 -5.30087,-3.67949 -0.53568,0.53568 -0.97396,0.27458 -0.97396,-0.58023 0,-0.8548 3.26745,-2.31227 7.26098,-3.23882 6.13002,-1.42223 7.11711,-1.30969 6.33726,0.72254 -0.54081,1.40933 -0.21116,1.96679 0.79524,1.3448 0.94543,-0.58429 1.57431,-4.39286 1.39755,-8.46348 -0.17676,-4.07061 0.2931,-7.02133 1.04414,-6.55716 0.75107,0.46418 1.36556,0.0554 1.36556,-0.9083 0,-0.96375 -0.72861,-1.75227 -1.61914,-1.75227 -1.69881,0 1.34066,-8.16797 3.12569,-8.39965 0.53644,-0.0697 2.28677,-0.37727 3.8896,-0.68363 3.81422,-0.72907 7.12035,5.13662 4.6041,8.16851 -1.35264,1.62983 -1.17211,2.42835 0.71249,3.15153 3.80488,1.46007 3.14213,7.83911 -0.92494,8.90268 -2.60927,0.68233 -2.91144,1.23568 -1.24096,2.27254 1.73213,1.07512 1.38736,2.18485 -1.59938,5.14793 -2.41064,2.39156 -3.57242,2.86681 -3.16674,1.29543 0.35241,-1.36506 0.3269,-1.91886 -0.0568,-1.23065 -0.38359,0.6882 -1.36988,0.83568 -2.19178,0.32771 -0.82188,-0.50795 -1.09669,0.11268 -0.61068,1.37922 0.48601,1.26652 -0.0809,3.05103 -1.25991,3.9656 -4.68296,3.63277 -7.36278,3.35875 -11.58754,-1.18481 z m 1.9729,-32.52877 c -0.0202,-2.38901 -0.32241,-2.52401 -1.49693,-0.66879 -1.10025,1.73787 -2.56227,0.1721 -5.79369,-6.20479 -4.60963,-9.09669 -3.8882,-10.1908 4.59333,-6.96613 2.62447,0.99783 3.94289,2.64337 3.64566,4.55018 -0.25608,1.6429 0.14759,4.63602 0.89706,6.65139 0.7948,2.13724 0.69947,4.07416 -0.22871,4.64783 -0.87526,0.54095 -1.60279,-0.36341 -1.61672,-2.00969 z m 5.58954,-1.02354 c 0.66747,-2.65944 0.29791,-4.45299 -1.01688,-4.93514 -1.56084,-0.57238 -1.60057,-1.25259 -0.16265,-2.78431 1.48869,-1.58578 2.629,-1.30071 5.23961,1.3099 1.83523,1.83523 3.93273,2.84041 4.66109,2.23373 0.72836,-0.6067 0.29322,0.24058 -0.96699,1.88283 -1.26021,1.64223 -3.75636,3.76998 -5.54703,4.72831 -2.92499,1.56542 -3.14921,1.31802 -2.20719,-2.43532 z M 185.39604,673.8189 c 0,-1.0617 -0.48993,-1.44045 -1.08871,-0.84165 -0.59881,0.59879 -2.02166,0.31444 -3.16192,-0.63188 -1.43638,-1.1921 -2.40256,-1.18768 -3.14546,0.0149 -1.4668,2.37333 -10.80463,2.20442 -10.80463,-0.19542 0,-1.0617 -0.49243,-1.43796 -1.09428,-0.8361 -0.60184,0.60185 -2.83557,-1.46827 -4.96383,-4.60028 -4.32762,-6.36921 -4.65292,-7.52529 -2.11729,-7.52529 0.96374,0 1.19311,0.93072 0.50969,2.06827 -0.97129,1.61672 -0.67715,1.61048 1.34723,-0.0285 3.1723,-2.56842 7.26108,-1.25306 13.70104,4.40762 2.69535,2.3692 3.90718,3.00462 2.69296,1.41206 -1.21422,-1.59256 -1.55806,-2.90697 -0.7641,-2.9209 0.79395,-0.0132 0.32669,-0.74719 -1.03836,-1.62936 -3.87785,-2.50606 4.62373,-2.09666 13.79823,0.66447 4.23815,1.27549 7.29086,1.64778 6.78377,0.82731 -0.50709,-0.82047 1.68405,-1.49178 4.86918,-1.49178 3.18512,0 6.29139,0.80945 6.90284,1.79877 0.80053,1.29532 1.61518,1.29532 2.91049,0 0.98933,-0.98932 4.1675,-1.79877 7.06261,-1.79877 4.02653,0 6.25766,1.30297 9.49183,5.54318 l 4.22797,5.54316 -8.99544,-0.20615 c -4.94749,-0.11334 -8.99543,0.3705 -8.99543,1.07528 0,2.78988 -9.84544,1.21748 -11.4781,-1.83314 -0.91677,-1.713 -2.90972,-3.5915 -4.42876,-4.1744 -2.28163,-0.87554 -2.40872,-0.63427 -0.73083,1.38745 1.11709,1.34603 1.55075,3.22451 0.96368,4.17442 -1.47279,2.38302 -12.45438,2.20378 -12.45438,-0.2033 z m 118.20933,0.43008 c 0.50999,-0.82517 -0.56002,-1.11137 -2.37779,-0.63601 -3.7264,0.97446 -9.79043,-5.07622 -9.88137,-9.85962 -0.0812,-4.27745 5.98863,-3.62075 10.77513,1.16576 4.10439,4.10438 5.53838,10.83018 2.30906,10.83018 -0.96375,0 -1.33501,-0.67514 -0.82503,-1.50031 z m -71.82045,-4.49445 c -5.92195,-4.98299 -5.23247,-7.24213 2.21025,-7.24213 3.73894,0 6.74236,1.4179 9.83001,4.64072 2.44535,2.55238 4.44609,5.03776 4.44609,5.52304 0,0.48528 -2.57712,0.9792 -5.72694,1.09762 -3.9508,0.14858 -7.28769,-1.09798 -10.75941,-4.01925 z m 15.19881,-1.31462 c -5.97622,-6.11217 -5.51927,-7.58212 2.35698,-7.58212 4.69382,0 5.94881,0.91551 8.73112,6.36931 l 3.24937,6.36929 -4.52211,0.12856 c -3.03587,0.0864 -6.2618,-1.65067 -9.81536,-5.28506 z m 15.66097,1.5696 c -3.62814,-6.41266 -2.78103,-9.21816 2.81048,-9.30797 2.83434,-0.0455 8.06458,-0.15438 11.62276,-0.24174 5.24572,-0.12889 7.18665,0.74052 10.26133,4.59653 2.80654,3.51975 3.33007,5.31198 2.01469,6.89693 -2.99086,3.60376 -9.13216,2.45184 -12.8418,-2.40877 l -3.47273,-4.55018 1.0424,4.59092 c 0.98344,4.33116 0.74315,4.5681 -4.24669,4.18789 -3.29461,-0.25104 -6.00609,-1.67028 -7.19044,-3.76361 z m -117.15114,0.36229 c -1.36342,-1.13755 -4.47919,-4.8044 -6.92394,-8.14856 l -4.44501,-6.08029 6.63682,0.47273 c 6.84624,0.48764 11.18433,3.3993 16.79747,11.2742 l 3.24332,4.55018 -6.41488,0 c -3.52818,0 -7.53038,-0.93072 -8.89378,-2.06826 z m -18.3964,-2.61068 c -2.59427,-1.02811 -9.54019,-12.33228 -9.54019,-15.52624 0,-0.71762 1.11687,-1.30476 2.48192,-1.30476 1.36506,0 2.48193,0.72121 2.48193,1.60269 0,0.88146 0.93072,1.26157 2.06826,0.84468 1.13755,-0.4169 2.83003,-0.20739 3.7611,0.46557 3.33654,2.41166 7.52292,10.45326 6.39333,12.28094 -0.70326,1.13791 -0.40789,1.40382 0.75854,0.68292 1.05065,-0.64933 1.91027,-0.39209 1.91027,0.57165 0,1.93754 -5.84442,2.15429 -10.31516,0.38255 z m -18.64055,-5.89485 c -5.82742,-2.54896 -14.229596,-19.20921 -9.687656,-19.20921 1.420906,0 1.944906,0.79656 1.256606,1.91027 -0.746926,1.20856 -0.452166,1.46006 0.80242,0.68468 2.44302,-1.50987 10.59097,3.56217 9.23832,5.75079 -0.53773,0.87007 -0.20828,1.58193 0.73208,1.58193 1.50972,0 6.75859,8.28876 6.75859,10.6728 0,1.50006 -3.82822,0.91481 -9.10036,-1.39126 z m -18.737356,-8.18093 c -2.0425,-0.91137 -3.54535,-2.83486 -3.33967,-4.2744 0.20569,-1.43955 -0.18907,-4.28598 -0.87722,-6.32542 -3.16259,-9.37264 4.70037,-6.82105 9.88676,3.20834 4.34688,8.40594 2.37233,10.98002 -5.66987,7.39148 z m -16.42312,-9.56403 c -3.38603,-2.16847 -5.35802,-4.76237 -5.32487,-7.00422 0.0518,-3.49958 3.47144,-9.35153 5.46478,-9.35153 1.90576,0 6.30715,10.21896 5.40922,12.55893 -0.4923,1.28292 -0.29798,2.33257 0.43182,2.33257 0.7298,0 1.32692,1.11686 1.32692,2.48192 0,3.23132 -0.8602,3.11153 -7.30787,-1.01767 z m -11.66501,-10.06823 c -2.45414,-2.45413 -2.61533,-7.94213 -0.23329,-7.94213 0.96375,0 1.34424,-0.66021 0.84553,-1.46713 -1.04562,-1.69185 3.25455,-5.67214 6.6695,-6.17335 3.26475,-0.47916 2.87816,3.14889 -1.16129,10.89876 -3.97153,7.61955 -3.52584,7.27847 -6.12045,4.68385 z m -5.29476,-13.00362 c 0,-0.96374 0.77441,-1.27364 1.72093,-0.68866 1.10511,0.683 1.35656,-0.38814 0.70268,-2.99344 -0.78793,-3.13931 -0.003,-4.85496 3.46603,-7.58439 5.21896,-4.10524 12.31108,-4.71945 12.31108,-1.0662 0,1.35365 -2.91572,4.30177 -6.47935,6.55141 -3.56366,2.24963 -6.95819,4.86497 -7.54341,5.81189 -1.38521,2.2413 -4.17796,2.22085 -4.17796,-0.0306 z m 7.86971,-17.50488 c 1.14321,-0.48445 1.71559,-1.46813 1.27195,-2.18595 -0.44363,-0.71782 1.00533,-3.26025 3.21991,-5.64982 4.37773,-4.72365 11.54756,-5.79357 13.02491,-1.94364 1.58037,4.11836 -4.22486,8.77578 -12.14959,9.74736 -4.09516,0.5021 -6.5104,0.51651 -5.36718,0.0321 z m 14.78286,-15.02969 c -6.14074,-0.92311 -5.33627,-4.96579 1.96761,-9.88787 5.5324,-3.72829 9.64543,-3.7124 7.3018,0.0281 -1.22777,1.9596 -1.4196,2.78904 -1.88696,8.15872 -0.13866,1.59256 -0.81045,2.78401 -1.49298,2.64766 -0.68252,-0.13634 -3.33278,-0.56237 -5.88947,-0.94671 z m -2.79724,-16.1788 c 0,-2.27509 0.78853,-4.13653 1.75227,-4.13653 0.96375,0 1.29209,-0.74458 0.72965,-1.65461 -0.56243,-0.91004 -0.19015,-1.65461 0.82731,-1.65461 1.01745,0 1.44188,-0.66021 0.94318,-1.46713 -1.25392,-2.02887 2.91951,-5.22485 4.98267,-3.81572 0.9231,0.63048 1.83829,3.53493 2.03377,6.45436 0.25946,3.87492 -0.55294,5.79417 -3.00899,7.10861 -1.85042,0.99031 -4.20864,1.27881 -5.24049,0.64111 -1.15013,-0.71084 -1.41924,-0.42034 -0.69545,0.75078 0.64934,1.05064 0.3921,1.91026 -0.57165,1.91026 -0.96374,0 -1.75227,-1.86143 -1.75227,-4.13652 z m -3.89189,-17.35057 c -4.30938,-10.24899 2.11181,-19.00889 7.82494,-10.67489 3.10771,4.53334 2.69114,7.56834 -1.67632,12.2134 l -3.80165,4.04327 z m -9.1746,-17.98427 c -4.22193,-5.92913 -4.26686,-6.67498 -0.58405,-9.69362 1.59257,-1.30534 1.84981,-1.83083 0.57165,-1.16771 -1.64546,0.85366 -1.93058,0.56922 -0.97661,-0.97432 1.01445,-1.64144 2.49722,-0.89297 6.00225,3.02984 3.61329,4.04399 4.35186,6.02913 3.30052,8.8712 -2.00607,5.42289 -4.41927,5.40391 -8.31376,-0.0654 z m -15.47555,-16.76384 c -7.40945,-7.68689 -10.37019,-15.00117 -5.79114,-14.3065 4.30548,0.65319 6.20479,3.05971 6.20479,7.86177 0,3.09909 0.66395,4.55349 1.76741,3.87153 0.97207,-0.60079 1.32895,-2.23492 0.79307,-3.63143 -0.86859,-2.26349 -0.56652,-2.25977 2.78276,0.0343 2.06641,1.41537 3.57098,3.37786 3.34347,4.36108 -0.22751,0.98322 0.22766,1.78767 1.0115,1.78767 0.78384,0 1.06933,1.86144 0.63443,4.13653 -0.43492,2.27509 -1.26239,4.11452 -1.83882,4.08764 -0.57643,-0.027 -4.5848,-3.71805 -8.90747,-8.20259 z m -15.64986,-12.23186 c -1.88286,-2.16549 -4.39079,-4.25972 -5.57317,-4.65385 -1.69898,-0.56632 -1.61684,-1.47748 0.39161,-4.34495 l 2.5414,-3.62837 4.38799,4.06667 c 2.53528,2.34962 4.38802,5.84657 4.38802,8.28219 0,5.25923 -1.7365,5.33799 -6.13585,0.27831 z M 6.4212738,491.58732 c -7.5831,-4.64208 -14.1597298,-8.84846 -14.6147498,-9.34751 -0.45501,-0.49903 -4.17789,-2.63012 -8.27305,-4.73573 -4.09517,-2.10563 -10.79634,-5.58569 -14.8915,-7.73349 -4.09517,-2.14778 -14.70536,-7.02111 -23.578215,-10.82959 -8.872852,-3.80849 -16.132465,-7.63198 -16.132465,-8.49663 0,-0.86467 -0.930719,-1.04666 -2.068264,-0.40442 -1.567836,0.88517 -1.610817,0.67152 -0.177638,-0.88295 1.502366,-1.62951 2.691636,-1.60717 5.791144,0.10887 2.14527,1.18768 4.513283,1.98312 5.262226,1.76764 1.284889,-0.36967 44.462502,18.97354 57.726132,25.86081 3.3771398,1.75363 5.6108598,3.77515 4.9638298,4.49226 -0.64705,0.7171 -0.29148,0.79649 0.79016,0.17643 2.0398,-1.16937 20.3370702,7.88577 22.3297202,11.05078 0.62248,0.98871 0.76468,2.39163 0.31602,3.1176 -0.44869,0.72598 0.0968,1.31997 1.21225,1.31997 2.6,0 0.46277,2.19381 -2.57102,2.63907 -1.26341,0.18543 -8.50148,-3.46093 -16.0845802,-8.10303 z"
         id="path4993"
         inkscape:connector-curvature="0"
         sodipodi:nodetypes="scsscsscssccssscsscssscccssscssccssssssssssssssssssscsscscsssssscsssccssssscsssssssssssssssscssscssscscccssscsssssssscccsscssscccscscsscccccccssssscscccsssssssccscsssccssssscssssssssscssssssscssscccssssssccssscssccscscsscsscsscsssscssscssssssssscssssssscscssccccsscssscssssscsscsssssssssssssssssssssssssscssssssscsssscscsssscsssscccssccccsssssssscsssssscscssssscccsscssssscccssscsssccsssssscssssscsscc" />
      <path
         style="fill:#1609f3;fill-opacity:1"
         d="m 3.3888038,1065.1328 c -25.0179798,-3.8408 -50.4467798,-10.5192 -71.9021878,-21.2598 -32.054436,-10.9382 -9.8867,-44.44434 15.205761,-45.03063 25.166607,-7.04428 51.2578668,-11.96592 77.321717,-13.22739 -18.1514802,6.1284 -48.72702,7.91594 -70.43764,18.12552 -21.434298,2.697 -43.055068,29.5731 -13.248357,39.7615 17.519967,8.2689 35.813417,13.4276 52.614607,17.0322 9.5662598,1.881 51.97044,5.1684 21.34134,5.2519 -3.63375,-0.1406 -7.2825102,-0.1935 -10.8952402,-0.6533 z m 335.4814662,-4.4422 c 22.30385,-1.8767 23.70477,-2.0249 38.46067,-4.2973 18.6534,-7.1684 70.50658,-16.2743 56.76162,-36.7484 -8.91774,-13.4126 -49.49058,-16.3677 -45.81545,-22.45911 13.02341,4.57251 24.357,5.88381 39.0562,9.89221 26.66432,8.5449 38.64362,20.5284 14.61553,34.2291 -31.76246,12.4573 -65.93133,18.1907 -99.55278,23.104 -8.68092,5.2132 -129.10672,8.065 -133.45934,5.807 -4.35262,-2.258 47.61514,-2.2912 50.07692,-2.468 2.46178,-0.1767 57.55278,-5.1828 79.85663,-7.0595 z m -280.667103,-0.7332 c -19.8082,-7.866 -62.4078846,-7.2994 -74.363984,-27.1002 -4.884007,-11.5805 8.8271547,-24.0478 76.192714,-38.43188 4.99986,-1.06758 -62.3804689,16.07558 -64.0633361,26.48968 -2.9583261,18.3072 39.8426181,27.8843 56.0575781,32.4321 46.023908,10.6112 162.196151,14.2622 163.774051,15.9078 1.57789,1.6455 19.29642,1.8672 -91.03422,-0.8311 -24.48792,-0.5989 -63.015645,-7.7711 -66.562803,-8.4664 z m 430.640253,-5.5832 c 10.72113,-3.8467 38.83422,-11.8461 36.71666,-31.3424 -15.93387,-19.9327 -44.6739,-25.57254 -68.8078,-30.7162 -14.25239,-3.0236 -38.53169,-4.19871 -48.51967,-8.26941 41.57297,1.77241 87.90504,7.56301 123.53983,30.63121 15.38935,23.6716 -22.69885,39.8376 -41.7477,41.0983 0,0 -42.2422,9.7989 -42.68863,6.4954 z M 366.57597,996.74387 c -10.26178,-5.01516 25.36989,2.72281 4.72082,0.94213 z M 28.207974,985.16158 c -3.5391,-4.02557 18.97099,1.03685 0,0 z"
         id="path4989"
         inkscape:connector-curvature="0"
         sodipodi:nodetypes="ccccccccczcccccczzzccssczscccccccccccccc" />
      <path
         style="fill:#ad0f0f"
         d="m 20.351664,812.48783 c -6.85017,-5.376 -8.338,-15.18943 -8.26956,-23.44591 1.06148,-16.13787 14.12415,-33.61733 31.61785,-32.3724 4.4806,-1.82115 14.97823,-2.08782 17.0488,2.63791 -7.82339,5.85076 -15.96555,12.28352 -17.22656,22.90388 -1.27185,10.15517 4.4351,19.59398 12.24629,25.61933 4.1159,2.27816 1.90451,3.4863 -1.551,4.48408 -10.03761,2.96996 -20.92413,2.44956 -31.20165,1.0071 l -1.50922,-0.3874 -1.15495,-0.44661 0,2e-5 z m 27.50058,-23.81133 c -4.56977,-6.56144 8.41799,7.23388 0.77186,0.94475 l -0.77186,-0.94475 z m 138.787686,-4.68513 c 1.30175,-9.006 6.57807,-18.55661 1.73077,-27.73765 -1.17525,-7.74552 -11.33178,-10.01798 -12.56195,-16.30911 4.79089,-6.24022 14.0863,-5.34851 21.21294,-6.34457 8.60059,-1.94015 13.85694,6.13543 18.33854,12.0225 6.57855,6.99806 2.32893,15.8686 2.0074,24.04038 -2.04306,8.51486 -12.16364,10.10863 -19.06845,13.12685 -3.55774,0.88411 -8.20235,3.47388 -11.65925,1.2016 z M 65.858684,750.90452 c -0.14627,-8.44354 0.13866,-18.17633 -6.14033,-24.93702 -2.68273,-1.08851 -4.90458,-3.90115 -6.38726,-2.93932 5.43722,-5.64747 14.03099,-7.01032 21.4545,-8.55942 4.60374,2.42435 6.87512,12.48217 9.18218,18.37573 2.47876,9.04882 -2.07354,17.3172 -12.07277,17.57206 -1.90621,0.37609 -4.16502,1.58237 -6.03632,0.48797 z m 92.997696,-27.30065 c -5.43973,-8.56025 -2.97953,-20.13798 3.65068,-27.24309 6.8146,-3.65939 16.06054,-2.84514 23.19189,-1.28962 -5.63286,7.55599 -7.39492,18.45244 -2.72832,27.07902 5.73028,5.06352 2.26902,7.81822 -4.32341,6.93965 -5.51194,0.35928 -11.03169,0.58128 -16.54754,0.8715 -1.08109,-2.11914 -2.16229,-4.23837 -3.2433,-6.35746 z"
         id="path4987"
         inkscape:connector-curvature="0" />
      <path
         style="fill:#0d720c"
         d="m 150.64921,1038.1091 c 13.0298,-6.1059 -4.77259,5.8129 0,0 z m 142.2893,-1.6546 c -0.48209,-13.0008 -12.15638,-21.3896 -22.19274,-27.6393 -10.67054,-6.6946 -23.29598,-9.48982 -35.8033,-8.4461 -21.43316,0.3333 -42.81793,2.3014 -64.23557,2.6597 -10.02099,0.7963 -18.62887,-6.84097 -20.53352,-16.39337 -3.32481,-14.64851 10.25986,-27.11627 23.52483,-30.00413 15.00873,-4.17984 33.39971,3.54166 38.33982,18.81402 8.30218,-1.26314 16.99913,-2.05062 24.59777,-5.831 5.54357,-3.03027 21.81474,-2.12357 16.59747,-11.41132 -5.75378,-12.97586 -15.96924,-23.95788 -29.40278,-29.04614 -14.96648,-6.75759 -31.4754,-7.71543 -47.61037,-8.75956 -2.34699,-7.06507 -4.27832,-14.29504 -7.2753,-21.12195 -8.74966,-0.87549 -17.48197,3.01731 -25.74136,5.77456 -5.78355,0.5261 5.21144,-7.63987 6.6628,-10.50755 4.65217,0.0367 4.55725,-8.70006 11.48603,-6.0733 8.34538,-3.04746 18.57872,-8.01018 27.12449,-5.62622 4.02941,7.02083 8.71307,16.8401 19.12908,14.8186 14.83201,0.30422 30.25516,3.61716 41.61934,13.76512 10.29604,7.58537 18.35277,18.30702 20.94139,30.99497 1.58767,3.28216 1.54787,6.33826 -1.09325,9.03301 -4.57503,6.62925 -7.61108,15.63807 -16.39429,17.57625 -15.91573,4.66602 -32.17684,8.04801 -48.26365,12.07479 0.57169,-11.3588 -9.2668,-20.99392 -20.2805,-22.09794 -9.54974,-4.4432 -16.68363,4.6028 -9.53379,12.59209 4.15882,9.07906 14.28213,11.52094 23.37809,10.9081 23.10459,0.3342 46.21352,0.13585 69.3201,0.2041 12.70462,4.92154 25.10442,11.07785 34.82268,20.88457 6.5406,6.4111 18.03151,16.643 9.63962,25.7809 -5.14689,5.5873 -14.40301,3.1288 -18.82309,7.0771 z m -167.31953,-12.8232 c -4.51545,-6.7268 9.10458,8.6297 0,0 z m -24.47749,-35.84992 c 0.93686,-7.36193 1.51988,5.98964 0,0 z m 45.47757,-57.70699 c 4.90938,-7.13625 -1.22303,6.52566 0,0 z"
         id="path4985"
         inkscape:connector-curvature="0" />
      <path
         sodipodi:nodetypes="cccccssssssssssssssssssssssscssssssssssssscssssssssssssscsssscssssssscscscssssscssssscccsscssccssssssssssssssssssssssssssss"
         inkscape:connector-curvature="0"
         id="use3096"
         d="m 284.22758,1041.9877 c 1.12022,-0.4533 3.35394,-0.4809 4.96383,-0.061 1.60989,0.4195 0.69333,0.7903 -2.03678,0.824 -2.73011,0.034 -4.04728,-0.3095 -2.92705,-0.7627 z m -4.93235,-4.9744 c 1.13755,-0.459 2.99898,-0.459 4.13653,0 1.13754,0.459 0.20682,0.8346 -2.06827,0.8346 -2.27509,0 -3.20581,-0.3756 -2.06826,-0.8346 z m 8.27306,-1.6546 c 1.13754,-0.459 2.99898,-0.459 4.13652,0 1.13755,0.459 0.20683,0.8346 -2.06826,0.8346 -2.27509,0 -3.20581,-0.3756 -2.06826,-0.8346 z M 91.083204,972.99144 c 0,-2.56986 9.662486,-22.21751 11.478176,-23.33967 1.07906,-0.66689 -0.77712,4.25785 -4.124786,10.94385 -6.27323,12.5289 -7.35339,14.34976 -7.35339,12.39582 z m -6.404,-17.51681 c 0.9333,-2.67728 2.86291,-5.83547 4.28803,-7.01822 1.85826,-1.54221 1.57847,-0.16546 -0.98931,4.86779 -4.14902,8.13274 -5.74741,9.17473 -3.29872,2.15043 z M 264.59207,909.40448 c -2.15117,-2.63102 -6.66882,-6.92415 -10.03923,-9.54032 -3.37043,-2.61616 -5.84262,-5.04207 -5.49378,-5.39091 1.18924,-1.18923 15.80037,9.79297 18.48975,13.89749 3.86898,5.90483 1.65797,6.67783 -2.95674,1.03374 z m 3.53453,-13.91477 c -10.00306,-9.39763 -6.53796,-9.20884 3.86528,0.21058 3.99312,3.61551 8.85554,10.19865 7.36156,9.96669 -0.25953,-0.0402 -5.3116,-4.62007 -11.22684,-10.17727 z M 10.834554,824.45889 c -10.3902302,-2.39814 -28.66663,-9.95196 -31.132,-12.86715 -3.31177,-3.91603 -9.41311,-22.0726 -10.49937,-31.24442 -1.23039,-10.38876 2.90008,-18.72227 14.40786,-29.06874 18.2797798,-16.4351 72.39964,-38.80406 118.227126,-48.86591 40.33054,-8.85495 67.08736,-12.24058 97.62207,-12.35247 28.21317,-0.10341 30.4277,0.12261 42.01448,4.28837 16.09762,5.78745 20.62874,10.37059 25.63079,25.925 5.63281,17.51579 6.02666,19.97064 4.37529,27.27098 -4.39895,19.44675 -49.52617,43.96504 -111.0836,60.35342 -55.22683,14.70296 -124.418266,22.36447 -149.562646,16.56092 z m 41.94372,-11.53805 c 2.86482,-0.99869 4.76554,-2.53293 4.22384,-3.40944 -0.61662,-0.99772 2.63249,-1.19025 8.68868,-0.51487 5.32047,0.59335 16.00249,0.21818 23.73779,-0.83367 22.834616,-3.1051 65.895366,-13.14516 81.607716,-19.0277 8.02776,-3.00552 15.95714,-5.10861 17.62082,-4.67355 4.20643,1.1 22.96731,-5.99914 26.82194,-10.14947 1.74836,-1.88248 10.028,-7.21528 18.39918,-11.85062 22.56964,-12.49744 25.93398,-19.40234 20.19294,-41.44366 -2.75516,-10.57776 -8.07513,-17.20066 -18.20949,-22.6692 -5.7421,-3.09846 -9.79522,-3.64099 -30.61031,-4.09731 -32.1924,-0.70574 -39.97104,-0.48226 -42.07218,1.20877 -0.97625,0.78571 -5.87018,1.92165 -10.87538,2.52431 -16.93789,2.03939 -37.21983,6.21598 -60.393316,12.43657 -7.28029,1.9543 -15.47061,3.86054 -18.20072,4.2361 -7.40394,1.01852 -18.24298,5.19482 -17.90149,6.89747 0.16464,0.82058 -1.83635,1.65471 -4.4465,1.85359 -10.3285,0.787 -47.5913702,18.98655 -60.99499,29.79055 -10.0865,8.13021 -12.71137,15.0119 -10.20444,26.75319 2.50831,11.74779 6.31292,20.07459 10.60146,23.20245 5.2837698,3.85374 17.7773098,8.00317 24.52326,8.14482 3.35892,0.0705 6.56732,0.87281 7.12975,1.78285 1.37755,2.22894 23.84732,2.10964 30.36144,-0.16116 z m -3.06035,-45.34063 c 1.13287,-1.36506 2.43208,-2.48192 2.88709,-2.48192 0.45502,0 -0.0996,1.11686 -1.23248,2.48192 -1.1329,1.36505 -2.4321,2.48191 -2.88712,2.48191 -0.45502,0 0.0996,-1.11686 1.23251,-2.48191 z m 7.8449,-5.08247 c 1.12957,-0.53613 3.25888,-3.51435 4.73178,-6.61828 1.47292,-3.10392 3.26483,-5.28082 3.98204,-4.83757 0.7172,0.44327 4.91679,-0.26934 9.33242,-1.58356 45.936596,-13.67212 74.905226,-19.11821 110.148716,-20.70786 0.65395,-0.0294 0.76884,-1.1486 0.25529,-2.4869 -0.51356,-1.3383 0.62666,-4.41701 2.53383,-6.84158 2.39459,-3.04422 3.46759,-3.60148 3.46759,-1.80091 0,1.43408 -0.74458,3.06758 -1.65461,3.63001 -3.60004,2.22494 -1.30964,6.08012 5.37748,9.05134 l 7.0321,3.1245 -6.61844,0.12608 c -8.93904,0.17033 -19.01772,3.11936 -20.07474,5.87391 -0.5076,1.32279 -5.75752,3.05183 -12.73177,4.19319 -6.52741,1.06822 -20.8029,4.45774 -31.72333,7.53226 -10.92044,3.07453 -26.55652,6.75223 -34.746846,8.17267 -15.39554,2.67004 -42.9354,4.89268 -39.31151,3.17268 z m 32.8187,-4.89679 c 9.941306,-1.39343 21.053386,-3.2849 24.693536,-4.20329 16.83784,-4.24805 36.857,-10.75751 41.36529,-13.4504 l 4.96383,-2.96498 -5.79114,0.0235 c -21.60196,0.0877 -83.761206,15.46564 -85.670886,21.19469 -0.80833,2.42497 -1.22576,2.43721 20.43937,-0.59949 z m -51.31179,-2.84398 c -0.33914,-1.13754 -1.04786,-3.39965 -1.57494,-5.02689 -0.76377,-2.35805 0.21161,-2.06628 4.80511,1.43734 3.16987,2.41779 5.7634,4.67989 5.7634,5.0269 0,1.7052 -8.45972,0.35319 -8.99357,-1.43735 z m 41.36487,-30.53894 c -0.89793,-2.35815 -0.70788,-2.5482 0.92625,-0.92625 1.13079,1.12238 1.63917,2.45749 1.12973,2.96693 -0.50943,0.50944 -1.43463,-0.40887 -2.05598,-2.04068 z M -58.623823,766.7529 c 6.207274,-21.10496 27.587187,-37.6857 65.9737168,-51.16455 15.0870602,-5.2976 21.6766702,-6.07571 8.9307802,-1.05458 -15.2363202,6.00222 -45.11086,23.5033 -54.81365,32.11089 -5.60916,4.97603 -12.697994,12.46675 -15.752969,16.64605 -3.925615,5.37036 -5.197713,6.38566 -4.337878,3.46219 z m -17.402532,-27.33775 c 0.0207,-5.41672 15.650431,-22.84692 22.331073,-24.90349 1.820072,-0.5603 8.521246,-3.27035 14.891496,-6.02235 14.80282,-6.39494 17.00307,-7.26656 23.84651,-9.44652 10.94984,-3.48809 6.59748,-0.54447 -11.83047,8.00123 -22.52002,10.44336 -37.811292,20.11827 -44.36679,28.07123 -2.682903,3.25482 -4.875221,5.18978 -4.871819,4.2999 z m -11.526789,-19.81867 c 0.033,-9.93893 13.651743,-26.58809 27.488568,-33.60537 3.50311,-1.77657 10.46446,-3.66223 15.46966,-4.19033 5.85782,-0.61808 7.33169,-0.49246 4.13652,0.35255 -16.77375,4.43603 -33.450176,16.31486 -39.789838,28.34279 -6.06238,11.50188 -7.31809,13.06623 -7.30491,9.10036 z"
         style="fill:#0a0a08" />
      <path
         style="fill:#0d720c;fill-opacity:1"
         d="m 173.81377,1041.5623 c 3.95452,-1.2149 16.32601,-0.6352 23.32012,-0.9274 16.34281,0.1117 32.78511,-0.5102 49.0599,0.7933 -22.62454,1.7661 -45.41373,1.3056 -68.08404,0.4715 -1.43374,-0.088 -2.86734,-0.1866 -4.29598,-0.3374 z m 110.41381,0.4254 c 4.30642,-1.4511 8.25359,1.5535 1.16041,0.7214 0.21358,0.1652 -2.58869,-0.2585 -1.16041,-0.7214 z m -143.50604,-4.6348 c -11.54707,-2.317 -23.88631,-3.9275 -33.99691,-10.3125 -4.50191,-4.3216 6.11912,-9.0871 -0.18023,-14.2278 -5.29137,-13.49109 -6.0265,-28.82578 -0.5433,-42.40406 6.10451,-17.914 18.36747,-32.66062 31.4347,-45.97294 3.09142,-1.96593 -0.0551,-5.39152 -0.33185,-8.14561 -4.61087,-7.40258 1.38307,-13.49611 7.51941,-17.18211 7.07027,-5.79928 -0.85887,2.61892 -3.17043,5.14886 -2.64131,2.11892 0.77401,5.4961 1.03868,8.21873 1.89188,5.57061 3.78375,11.14123 5.67563,16.71184 -10.392,7.96978 -22.34524,14.39219 -29.72108,25.63108 -9.27692,11.26091 -13.23301,26.59826 -9.78859,40.85702 4.7873,21.99309 24.82318,37.87509 46.24892,42.24509 8.36796,2.7753 -7.43109,0.5486 -9.90324,0.1011 -1.4287,-0.2136 -2.85601,-0.4372 -4.28171,-0.6687 z m 138.57369,-0.3396 c 7.88376,-1.404 3.55849,2.6955 0,0 z m 8.27306,-1.6546 c 7.88375,-1.404 3.55849,2.6954 0,0 z"
         id="path3100"
         inkscape:connector-curvature="0" />
      <flowRoot
         xml:space="preserve"
         id="flowRoot3883"
         style="font-size:64px;font-style:normal;font-variant:normal;font-weight:bold;font-stretch:normal;text-align:start;line-height:125%;letter-spacing:0px;word-spacing:0px;writing-mode:lr-tb;text-anchor:start;fill:#000000;fill-opacity:1;stroke:none;font-family:Sans;-inkscape-font-specification:Sans Bold"
         transform="translate(-82.123084,124.29983)"><flowRegion
           id="flowRegion3885"><rect
             id="rect3887"
             width="534.28571"
             height="121.42857"
             x="40"
             y="97.142853"
             style="font-size:64px;font-style:normal;font-variant:normal;font-weight:bold;font-stretch:normal;text-align:start;line-height:125%;writing-mode:lr-tb;text-anchor:start;fill:#000000;fill-opacity:1;font-family:Sans;-inkscape-font-specification:Sans Bold" /></flowRegion><flowPara
           id="flowPara3889"
           style="font-size:96px;font-style:normal;font-variant:normal;font-weight:bold;font-stretch:normal;text-align:center;line-height:125%;writing-mode:lr-tb;text-anchor:middle;fill:#000000;fill-opacity:1;font-family:Sans;-inkscape-font-specification:Sans Bold">תקציב 2012</flowPara></flowRoot>      <path
         sodipodi:nodetypes="zcccccczzzccssczsc"
         inkscape:connector-curvature="0"
         id="path3910"
         d="m 297.69862,1048.9359 c 16.43279,-1.2582 17.46494,-1.3575 28.33662,-2.8809 13.74324,-4.8058 55.87561,-8.4105 45.74876,-22.1365 -6.57031,-8.9919 -45.39169,-12.4016 -42.68397,-16.4854 9.59526,3.0655 22.94548,2.8732 33.77539,5.5605 19.64545,5.7285 33.82855,13.7624 10.76827,22.9475 -23.40158,8.3514 -48.30829,11.213 -73.07951,14.5069 -6.39583,3.495 -94.4968,6.2104 -98.32867,3.8931 -3.83187,-2.3174 34.81349,-0.5539 36.62725,-0.6724 1.81376,-0.1186 42.4031,-3.4747 58.83586,-4.7328 z m -206.786724,-0.4916 c -14.594069,-5.2734 -47.051607,-7.0364 -55.860486,-20.311 -3.598384,-7.7637 7.575,-13.979 57.207831,-23.6222 3.683745,-0.7157 -45.153986,13.5924 -46.128428,20.616 -1.108174,7.9876 28.283362,15.8368 40.23004,18.8857 33.908977,7.1138 118.965347,9.1152 120.663597,9.5933 1.69825,0.4781 14.21699,2.3231 -67.07116,0.5142 -18.04194,-0.4015 -46.427962,-5.2098 -49.041394,-5.676 z"
         style="fill:#1401cc;fill-opacity:1" />
    </g>
  </g>
</svg>
